<svg width="500" height="500" viewBox="0 0 500 500" fill="none" xmlns="http://www.w3.org/2000/svg">
<rect width="500" height="500" rx="52" fill="#0C0C0C"/>
<path d="M391.372 185C423.404 185 449.372 210.968 449.372 243C449.372 275.032 423.404 301 391.372 301C376.174 301 362.342 295.154 352 285.589C359.023 272.98 363.026 258.458 363.026 243C363.026 227.542 359.023 213.02 352 200.41C362.342 190.845 376.174 185 391.372 185Z" fill="white"/>
<path d="M107.999 185C75.9667 185 49.999 210.968 49.999 243C49.999 275.032 75.9667 301 107.999 301C123.197 301 137.029 295.154 147.371 285.589C140.348 272.98 136.345 258.458 136.345 243C136.345 227.542 140.348 213.02 147.371 200.41C137.029 190.845 123.197 185 107.999 185Z" fill="white"/>
<circle cx="250" cy="243" r="93" fill="white"/>
<circle cx="137.5" cy="412.5" r="58.5" fill="white"/>
<circle cx="360.5" cy="87.5" r="58.5" fill="white"/>
<line x1="359.079" y1="92.0326" x2="136.079" y2="417.033" stroke="white" stroke-width="39"/>
</svg>
